<svg width="24" height="24" viewBox="0 0 24 24" fill="none" xmlns="http://www.w3.org/2000/svg">
<path d="M18.6071 8.51943L13.0082 3.37651C12.8778 3.25653 12.7227 3.16167 12.5519 3.09751C12.2095 2.9675 11.8249 2.9675 11.4825 3.09751C11.3117 3.16167 11.1566 3.25653 11.0262 3.37651L5.42732 8.51943C5.29363 8.63803 5.187 8.7799 5.11364 8.93677C5.04028 9.09363 5.00167 9.26235 5.00005 9.43306C4.99844 9.60378 5.03385 9.77309 5.10423 9.9311C5.17461 10.0891 5.27854 10.2327 5.40997 10.3534C5.54139 10.4741 5.69767 10.5696 5.86969 10.6342C6.04171 10.6989 6.22603 10.7314 6.41188 10.7299C6.59774 10.7284 6.78141 10.693 6.95218 10.6256C7.12295 10.5582 7.2774 10.4602 7.40652 10.3374L10.6189 7.38927V19.7143C10.6189 20.0553 10.7663 20.3823 11.0288 20.6234C11.2913 20.8645 11.6474 21 12.0186 21C12.3898 21 12.7459 20.8645 13.0084 20.6234C13.2708 20.3823 13.4183 20.0553 13.4183 19.7143V7.38927L16.6279 10.3374C16.8919 10.5717 17.2454 10.7012 17.6124 10.6983C17.9794 10.6954 18.3305 10.5602 18.59 10.3218C18.8495 10.0834 18.9968 9.76092 18.9999 9.42381C19.0031 9.0867 18.8621 8.76192 18.6071 8.51943Z" fill="#C3DDFD"/>
</svg>
