<svg width="245" height="49" viewBox="0 0 245 49" fill="none" xmlns="http://www.w3.org/2000/svg">
<path d="M5.06896 24.0481C2.81609 22.7474 2.81609 19.4956 5.06897 18.1949L26.6121 5.75701C28.8649 4.45631 31.681 6.08219 31.681 8.68358L31.681 33.5594C31.681 36.1608 28.8649 37.7867 26.6121 36.486L5.06896 24.0481Z" fill="#E1EFFE"/>
<path d="M62.5189 24.9519C64.7718 26.2526 64.7718 29.5044 62.5189 30.8051L40.9758 43.243C38.7229 44.5437 35.9069 42.9178 35.9069 40.3164V15.4406C35.9069 12.8392 38.7229 11.2133 40.9758 12.514L62.5189 24.9519Z" fill="#635BFF"/>
<path d="M83.9059 37.42C82.8793 37.42 81.9193 37.3267 81.0259 37.14C80.1459 36.9667 79.4059 36.7333 78.8059 36.44C78.2059 36.1467 77.7126 35.8667 77.3259 35.6C76.9526 35.3333 76.6393 35.0667 76.3859 34.8L76.8859 29.94C77.4326 30.6733 78.1659 31.3133 79.0859 31.86C80.0059 32.3933 80.9993 32.66 82.0659 32.66C83.1326 32.66 83.8993 32.5467 84.3659 32.32C84.8459 32.0933 85.0859 31.68 85.0859 31.08C85.0859 30.44 84.8126 29.8933 84.2659 29.44C83.7326 28.9867 82.8059 28.44 81.4859 27.8C81.0059 27.56 80.5993 27.3467 80.2659 27.16C79.9326 26.96 79.4859 26.64 78.9259 26.2C78.3793 25.7467 77.9326 25.28 77.5859 24.8C77.2393 24.3067 76.9326 23.68 76.6659 22.92C76.3993 22.1467 76.2659 21.32 76.2659 20.44C76.2659 15.68 78.9526 13.3 84.3259 13.3C85.1793 13.3 85.9793 13.3933 86.7259 13.58C87.4859 13.7533 88.0793 13.9467 88.5059 14.16C88.9326 14.3733 89.3193 14.6267 89.6659 14.92C90.0259 15.2 90.2526 15.4 90.3459 15.52C90.4393 15.6267 90.5059 15.7133 90.5459 15.78L89.5459 19.64C89.0259 19.0267 88.3726 18.5733 87.5859 18.28C86.8126 17.9733 86.0726 17.82 85.3659 17.82C83.6593 17.82 82.8059 18.3533 82.8059 19.42C82.8059 19.7 82.8593 19.9533 82.9659 20.18C83.0726 20.4067 83.2459 20.6133 83.4859 20.8C83.7259 20.9867 83.9459 21.1467 84.1459 21.28C84.3593 21.4133 84.6459 21.58 85.0059 21.78C85.3793 21.9667 85.6593 22.12 85.8459 22.24C87.7926 23.0667 89.2193 24.0467 90.1259 25.18C91.0459 26.3133 91.5059 27.6933 91.5059 29.32C91.5059 31.96 90.8526 33.9733 89.5459 35.36C88.2526 36.7333 86.3726 37.42 83.9059 37.42ZM93.8452 37V24.06L92.6452 23.32V21.18L96.9452 20H100.285V37H93.8452ZM96.7452 18.16L93.4652 14.86V14.16L96.7452 10.88H97.5052L100.925 14.16V14.86L97.5052 18.16H96.7452ZM110.744 44.06C109.704 44.06 108.531 43.82 107.224 43.34C105.918 42.8733 105.071 42.4267 104.684 42L105.944 39.26C106.278 39.5133 106.818 39.7467 107.564 39.96C108.311 40.1733 108.951 40.28 109.484 40.28C110.018 40.28 110.478 40.2067 110.864 40.06C111.264 39.9267 111.571 39.7533 111.784 39.54C111.998 39.34 112.171 39.0867 112.304 38.78C112.438 38.4867 112.518 38.22 112.544 37.98C112.584 37.74 112.611 37.4733 112.624 37.18V35.48C111.491 36.6533 110.111 37.24 108.484 37.24C106.284 37.24 104.671 36.4867 103.644 34.98C102.618 33.4733 102.104 31.38 102.104 28.7C102.104 27.4467 102.244 26.2933 102.524 25.24C102.804 24.1733 103.211 23.24 103.744 22.44C104.291 21.6267 104.998 20.9933 105.864 20.54C106.731 20.0733 107.711 19.84 108.804 19.84C110.458 19.84 111.891 20.2067 113.104 20.94L113.444 20H116.504L120.264 20.18V22.06L119.064 22.9V36.26C119.064 41.46 116.291 44.06 110.744 44.06ZM111.384 33.6C111.784 33.6 112.198 33.4867 112.624 33.26V22.72C112.304 22.6533 112.011 22.62 111.744 22.62C109.971 22.6333 109.078 24 109.064 26.72V29.82C109.064 30.6733 109.178 31.4067 109.404 32.02C109.804 33.0733 110.464 33.6 111.384 33.6ZM128.313 37H121.853V24.06L120.653 23.32V21.18L124.953 20H128.353V22.58C128.42 22.4867 128.513 22.3667 128.633 22.22C128.766 22.06 129.006 21.8133 129.353 21.48C129.7 21.1467 130.053 20.8533 130.413 20.6C130.786 20.3467 131.233 20.12 131.753 19.92C132.286 19.7067 132.813 19.6 133.333 19.6C134.666 19.6 135.686 19.8533 136.393 20.36C137.1 20.8667 137.6 21.6933 137.893 22.84C138.346 22.0533 139.04 21.32 139.973 20.64C140.92 19.9467 141.96 19.6 143.093 19.6C144.346 19.6 145.32 19.82 146.013 20.26C146.72 20.6867 147.233 21.42 147.553 22.46C147.873 23.5 148.033 24.9667 148.033 26.86V37H141.533V26.28C141.533 25.6933 141.393 25.2333 141.113 24.9C140.833 24.5667 140.406 24.4 139.833 24.4C139.446 24.4 138.92 24.72 138.253 25.36C138.293 26 138.313 26.6933 138.313 27.44V37H131.713V26.28C131.753 25.0267 131.22 24.4 130.113 24.4C130.033 24.4 129.953 24.4067 129.873 24.42C129.806 24.4333 129.74 24.4467 129.673 24.46C129.62 24.4733 129.553 24.5 129.473 24.54C129.406 24.5667 129.346 24.5933 129.293 24.62C129.24 24.6333 129.18 24.6667 129.113 24.72C129.046 24.76 128.993 24.7933 128.953 24.82C128.913 24.8467 128.853 24.8933 128.773 24.96C128.706 25.0133 128.653 25.0533 128.613 25.08C128.586 25.1067 128.533 25.1533 128.453 25.22C128.386 25.2733 128.34 25.3133 128.313 25.34V37ZM159.204 35.22L159.004 35.44C158.871 35.6 158.664 35.7867 158.384 36C158.117 36.2133 157.804 36.4267 157.444 36.64C157.097 36.8533 156.671 37.0333 156.164 37.18C155.657 37.34 155.137 37.42 154.604 37.42C151.004 37.42 149.204 35.64 149.204 32.08C149.204 31.3867 149.331 30.7533 149.584 30.18C149.837 29.5933 150.164 29.1 150.564 28.7C150.964 28.3 151.444 27.9467 152.004 27.64C152.564 27.32 153.124 27.0733 153.684 26.9C154.257 26.7133 154.857 26.56 155.484 26.44C156.111 26.32 156.671 26.24 157.164 26.2C157.657 26.16 158.131 26.14 158.584 26.14V25.78C158.584 24.9667 158.364 24.3933 157.924 24.06C157.497 23.7267 156.804 23.56 155.844 23.56C155.017 23.56 154.157 23.66 153.264 23.86C152.371 24.0467 151.671 24.2733 151.164 24.54L149.884 21.82C150.791 21.2333 151.971 20.72 153.424 20.28C154.877 19.8267 156.357 19.6 157.864 19.6C159.197 19.6 160.297 19.7333 161.164 20C162.031 20.2533 162.731 20.6933 163.264 21.32C163.811 21.9333 164.197 22.72 164.424 23.68C164.651 24.6267 164.764 25.8333 164.764 27.3V35.44L165.324 37H159.844L159.204 35.22ZM157.624 33.9C157.797 33.9 157.957 33.8667 158.104 33.8C158.264 33.72 158.384 33.6467 158.464 33.58C158.544 33.5 158.584 33.46 158.584 33.46V28.66C157.771 28.66 157.124 28.8867 156.644 29.34C156.164 29.78 155.924 30.4667 155.924 31.4C155.924 33.0667 156.491 33.9 157.624 33.9ZM174.082 37.42C173.055 37.42 172.095 37.3267 171.202 37.14C170.322 36.9667 169.582 36.7333 168.982 36.44C168.382 36.1467 167.888 35.8667 167.502 35.6C167.128 35.3333 166.815 35.0667 166.562 34.8L167.062 29.94C167.608 30.6733 168.342 31.3133 169.262 31.86C170.182 32.3933 171.175 32.66 172.242 32.66C173.308 32.66 174.075 32.5467 174.542 32.32C175.022 32.0933 175.262 31.68 175.262 31.08C175.262 30.44 174.988 29.8933 174.442 29.44C173.908 28.9867 172.982 28.44 171.662 27.8C171.182 27.56 170.775 27.3467 170.442 27.16C170.108 26.96 169.662 26.64 169.102 26.2C168.555 25.7467 168.108 25.28 167.762 24.8C167.415 24.3067 167.108 23.68 166.842 22.92C166.575 22.1467 166.442 21.32 166.442 20.44C166.442 15.68 169.128 13.3 174.502 13.3C175.355 13.3 176.155 13.3933 176.902 13.58C177.662 13.7533 178.255 13.9467 178.682 14.16C179.108 14.3733 179.495 14.6267 179.842 14.92C180.202 15.2 180.428 15.4 180.522 15.52C180.615 15.6267 180.682 15.7133 180.722 15.78L179.722 19.64C179.202 19.0267 178.548 18.5733 177.762 18.28C176.988 17.9733 176.248 17.82 175.542 17.82C173.835 17.82 172.982 18.3533 172.982 19.42C172.982 19.7 173.035 19.9533 173.142 20.18C173.248 20.4067 173.422 20.6133 173.662 20.8C173.902 20.9867 174.122 21.1467 174.322 21.28C174.535 21.4133 174.822 21.58 175.182 21.78C175.555 21.9667 175.835 22.12 176.022 22.24C177.968 23.0667 179.395 24.0467 180.302 25.18C181.222 26.3133 181.682 27.6933 181.682 29.32C181.682 31.96 181.028 33.9733 179.722 35.36C178.428 36.7333 176.548 37.42 174.082 37.42ZM193.241 37H187.141L182.041 20H189.261L191.681 30.84L193.501 23.4L192.561 20H199.481L201.521 30.84L204.221 20H208.501L203.381 37H197.301L195.341 30L193.241 37ZM218.266 35.22L218.066 35.44C217.933 35.6 217.726 35.7867 217.446 36C217.18 36.2133 216.866 36.4267 216.506 36.64C216.16 36.8533 215.733 37.0333 215.226 37.18C214.72 37.34 214.2 37.42 213.666 37.42C210.066 37.42 208.266 35.64 208.266 32.08C208.266 31.3867 208.393 30.7533 208.646 30.18C208.9 29.5933 209.226 29.1 209.626 28.7C210.026 28.3 210.506 27.9467 211.066 27.64C211.626 27.32 212.186 27.0733 212.746 26.9C213.32 26.7133 213.92 26.56 214.546 26.44C215.173 26.32 215.733 26.24 216.226 26.2C216.72 26.16 217.193 26.14 217.646 26.14V25.78C217.646 24.9667 217.426 24.3933 216.986 24.06C216.56 23.7267 215.866 23.56 214.906 23.56C214.08 23.56 213.22 23.66 212.326 23.86C211.433 24.0467 210.733 24.2733 210.226 24.54L208.946 21.82C209.853 21.2333 211.033 20.72 212.486 20.28C213.94 19.8267 215.42 19.6 216.926 19.6C218.26 19.6 219.36 19.7333 220.226 20C221.093 20.2533 221.793 20.6933 222.326 21.32C222.873 21.9333 223.26 22.72 223.486 23.68C223.713 24.6267 223.826 25.8333 223.826 27.3V35.44L224.386 37H218.906L218.266 35.22ZM216.686 33.9C216.86 33.9 217.02 33.8667 217.166 33.8C217.326 33.72 217.446 33.6467 217.526 33.58C217.606 33.5 217.646 33.46 217.646 33.46V28.66C216.833 28.66 216.186 28.8867 215.706 29.34C215.226 29.78 214.986 30.4667 214.986 31.4C214.986 33.0667 215.553 33.9 216.686 33.9ZM236.624 37C235.851 37 235.144 36.92 234.504 36.76C233.864 36.6 233.304 36.4 232.824 36.16V43.04H226.384V24.06L225.184 23.32V21.18L229.484 20H232.824V21.34C233.304 20.8467 233.884 20.4333 234.564 20.1C235.244 19.7667 236.038 19.6 236.944 19.6C239.144 19.6 240.758 20.3533 241.784 21.86C242.824 23.3667 243.344 25.4533 243.344 28.12C243.344 29.3733 243.204 30.5333 242.924 31.6C242.644 32.6533 242.231 33.5867 241.684 34.4C241.138 35.2133 240.431 35.8533 239.564 36.32C238.711 36.7733 237.731 37 236.624 37ZM233.684 34.22C235.471 34.22 236.364 32.8533 236.364 30.12V26.72C236.364 25.52 236.158 24.6267 235.744 24.04C235.344 23.4533 234.824 23.16 234.184 23.16C233.744 23.16 233.291 23.2933 232.824 23.56V34.12C232.984 34.16 233.131 34.1867 233.264 34.2C233.411 34.2133 233.551 34.22 233.684 34.22Z" fill="#E1EFFE"/>
</svg>
